# xmcd
#
# Track frame offsets:
#	150
#	14250
#	27702
#	40310
#	52757
#	65407
#	77085
#	86875
#	104510
#	116797
#	136042
#	148305
#	162937
#	174625
#	193990
#	209205
#	220912
#	230362
#
# Disc length: 3243 seconds
#
# Revision: 8
# Processed by: cddbd v1.5.2PL0 Copyright (c) Steve Scherf et al.
# Submitted via: audiograbber 1.83.01
#
DISCID=120ca912
DTITLE=Bobbie Gentry - The Golden Classics Of Bobbie Gentry
DYEAR=1997
DGENRE=Oldies
TTITLE0=Mississippi Delta
TTITLE1=I Saw An Angel Die
TTITLE2=Chickasaw Country Child
TTITLE3=Sunday Best
TTITLE4=Niki Hoeky
TTITLE5=Papa, Won't You Let Me Go To Town With You
TTITLE6=Bugs
TTITLE7=Hurry, Tuesday Child
TTITLE8=Lazy Willie
TTITLE9=Ode To Billie Joe
TTITLE10=Louisiana Man
TTITLE11=Okolona River Bottom Band
TTITLE12=He Made A Woman Out Of Me
TTITLE13=Fancy
TTITLE14=Apartment 21
TTITLE15=Bobbie Gentry and Glen Campbell_All I Have To Do Is Dream
TTITLE16=Bobbie Gentry and Glen Campbell_Let It Be Me (Je T'Appartiens)
TTITLE17=Bobbie Gentry and Glen Campbell_Mornin' Glory
EXTD=
EXTT0=
EXTT1=
EXTT2=
EXTT3=
EXTT4=
EXTT5=
EXTT6=
EXTT7=
EXTT8=
EXTT9=
EXTT10=
EXTT11=
EXTT12=
EXTT13=
EXTT14=
EXTT15=
EXTT16=
EXTT17=
PLAYORDER=
